<svg xmlns="http://www.w3.org/2000/svg" width="392.84" height="165.625" viewBox="0 0 392.84 165.625">
  <g id="Grupo_8" data-name="Grupo 8" transform="translate(-128.264 -193.12)">
    <g id="Grupo_5" data-name="Grupo 5" transform="translate(128.264 193.12)">
      <g id="Grupo_4" data-name="Grupo 4">
        <g id="Grupo_3" data-name="Grupo 3">
          <g id="Grupo_2" data-name="Grupo 2">
            <g id="Grupo_1" data-name="Grupo 1">
              <path id="Trazado_1" data-name="Trazado 1" d="M487.5,279.243c.013-.409,4.556-15.514,4.806-16.4-1.386-.227-1.841-.662-3.381-.3-3.179.74-7.452,4.8-9.99,7a27.407,27.407,0,0,1-7.759,5.117c.353-1.963,2.585-9.22,3.3-11.789-3.556-1.009-6.939,2.13-9.314,4.209-.779.674-2.4,2.286-3.184,2.789l-4.081,1.969a5.521,5.521,0,0,1-2.112-.168l2.69-8.956a11.9,11.9,0,0,0-2.77-.387c-4.861,0-11.7,9.155-14.453,11.32l-5.157,3.155a15.244,15.244,0,0,1,.636-2.031c.225-.691.4-1.228.664-2l3.94-11.953-7-1.315A45.015,45.015,0,0,0,420,261.169a12.1,12.1,0,0,0-6.334,5.607,38.2,38.2,0,0,0-3.868,8.083c-1.648,5.676-2.53,10.2-.853,15.763,2.133.686,2.858.762,5.027-.573.757-.465,1.563-1.161,2.249-1.683,1.646-1.233,6.035-6.652,7.542-8.17,1.318-1.323,2.552-2.833,4.312-3.558a4.591,4.591,0,0,1,.121,3.09l-.7,2.885v3.77l.491,1.335c1.553.169,2.377-.51,3.518-1.336,2.711-1.964,3.594-3.477,6.865-6.028,2.415-1.885,4.418-4.222,6.867-6.022l2.608-1.759-1.123,14.3.9.641a8.372,8.372,0,0,0,2.108-1.924c1.907-2.208,4.034-4.111,6.1-6.171,1.348-1.348,2.61-2.708,3.958-4.057l4.1-4.016c1,1.036.554,1.328.158,3.447L462,286.47a8.277,8.277,0,0,0,7.551-2.421,76.227,76.227,0,0,0,5.38-6.247l1.766-2.154a17.4,17.4,0,0,1,3.039-2.717,2.94,2.94,0,0,1,2.49-.27c0,3.012-2.254,11.41-3.057,14.927a8.326,8.326,0,0,0,2.458.446c3.258,0,7.949-5.1,10.547-6.97l3.492-2.128c1.274,11.5,7.283,14.513,19.446,7.477a23.861,23.861,0,0,0,10.339-15.126c.41-1.879.5-3.263,1.543-4.9a4.078,4.078,0,0,1,1.654-1.486,8.221,8.221,0,0,1,7.135.154,13.545,13.545,0,0,1,2.676,1.839c-.055,1.061-4.4,13.461-5.111,15.588l-1.626,5.3,2.06.384c3.724.346,8.49-5.294,10.775-8.12a8.248,8.248,0,0,0,.532-.741c3.243-4.51,6.218-6.582,10.757-9.641-.109,2.1-1.332,5.352-1.933,7.3-4.914,17.819,13.577,14.519,24.005,7.993a15.7,15.7,0,0,0,2.714-1.989c2.216-2.164,2.411-3.147,3.575-5.981-1.851.522-2.85.058-4.522,1.727-1.011,1.005-2.067,2.312-3.124,3.169a13.321,13.321,0,0,1-4.1,2.183,30.106,30.106,0,0,1-10.439.756,28.336,28.336,0,0,1-.387-4.094c0-2.732,1.686-7.407,2.69-9.7,1.938-4.442,1.788-4.59,2.676-9.639l-1.283-1.237c-1.158.211-17.438,8.984-19.482,10,.295-1.522,2.217-7.582,2.8-9.613-.946-.235-2.7-.9-3.624-.773l-7.384,2.059c-2.721.371-6.085-1.237-8.357-2.3-6.025-2.819-8.283-2.877-14.294.1a34.564,34.564,0,0,0-6.017,3.571,66.663,66.663,0,0,0-5.055,4.372c-1.659,1.573-3.076,3.254-4.826,4.756a32.093,32.093,0,0,1-2.466,2.244c-2.866,1.98-3.644,3.353-7.452,4.37-.712.191-1.553.16-2.06.3m-60.23-14.467c2.5,0,6.474,1.8,5.49,3.356-1.935,3.079-12.82,13.483-16.7,15.832-.949.574-.965.448-1.041-.547a8.659,8.659,0,0,1,.009-1.911,22.88,22.88,0,0,1,1.979-7.283c.453-1.109.907-2.156,1.433-3.268,1.306-2.736,1.422-3.943,4.014-5.273a9.607,9.607,0,0,1,4.816-.9m90.818,8.087c-.55,3.313-1.4,6.625-3.679,9.071a5.136,5.136,0,0,1-1.078.957,7.538,7.538,0,0,1-4.841,1.681c-7.568.064-2.618-10.417-.441-13.728.277-.438.4-.755.778-1.26.326-.445.625-.822.948-1.252a17.89,17.89,0,0,1,1.935-2.311c4.872-4.879,7.276,1.416,6.378,6.841" transform="translate(-202.786 -210.243)" fill="#050708" fill-rule="evenodd"/>
              <path id="Trazado_2" data-name="Trazado 2" d="M320.568,240.844c4.165,0,9.887-5.285,20.109-4.513,3.99.3,6.493,1.213,9.129,3.419,13.036,10.9-3.523,17.719-12.472,20.727-6.053,2.034-4.837,4.874-4.191,9.754a304.907,304.907,0,0,1,1.5,35.186c-31.661.194-55.177,1.8-86.823,4.787-5.753.545-21.687,1.84-26.335,4.083l.765,6.6c40.487-6.382,71.117-11.06,112.007-11.325.877.008.8-.115.93.61a31.151,31.151,0,0,0,1.5,6.366c2.125,6.523,5.356,10.98,11.953,13.518,5.38,2.072,8.771,2.995,14.237,1.362A47.846,47.846,0,0,0,356,328.028l-3.367-1.81a23.04,23.04,0,0,1-5.519-4.7,18.038,18.038,0,0,1-4.1-11.935l5.515-.384c7.386-.26,16.6.453,24.041,1.009,26.845,2,62.465,5.287,88.545,11.982,5.2,1.335,10.569,3,15.753,4.353,2.678.7,5.119,1.414,7.92,2.136,1.649.424,6.857,1.975,8.254,1.975l2.318-5.487-16.612-5.057c-6.056-1.606-20.322-3.679-27.629-4.9-19.493-3.265-37.749-5.424-57.287-7.751l-10.12-.7c-10.388-1.306-33.618-.709-41.574-1.787l-.125-2.166c-.4-10.45,2.673-23.2.777-33.083-.324-1.7-1.081-2.163-1.081-4.8,3.1-2.1,6.4-3.791,9.261-5.722,3.627-2.444,7.553-6.658,8.875-10.773,4.4-13.73-8.23-17.572-19.014-16.554a52.6,52.6,0,0,0-12.439,3.154c-1.86.646-3.737,1.408-5.612,2.094-1.329.49-4.521,1.555-4.4,3.312a3.343,3.343,0,0,0,2.187.414" transform="translate(-153.095 -203.4)" fill="#050708" fill-rule="evenodd"/>
              <path id="Trazado_3" data-name="Trazado 3" d="M128.264,272.212v.324l.563,3.24a19.915,19.915,0,0,0,.943,2.818,41.953,41.953,0,0,0,4.026,7.443l1.661,2.274a27.377,27.377,0,0,0,3.747,3.949c5.1,4.552,12.205,7.136,19.064,7.821,7.908.789,18.379-.745,25.193-4.835,4.518-2.711,7.318-4.4,11.125-8.2,10.4-10.4,14.728-25.668,7.822-39.319a22.457,22.457,0,0,0-3.951-5.637c-.453-.464-.252-.56-.828-1.063-.614-.533-1.46-1.23-2.141-1.779-11.756-9.416-29.29-5.133-40.992,1.863-1.391.834-5.675,3.68-6.5,4.97l-1.158,2.7c1.449.892,3.955-.089,5.347-.549,5.8-1.913,6.526-3.576,15.075-5.014,8.094-1.366,17.606-.076,22.715,4.527a6.453,6.453,0,0,0,.976.752,4.117,4.117,0,0,1,.774.791c1.656,2.353,1.552,1.5,3.365,5.12,1.34,2.67,2.229,7.39,2.425,10.918a26.085,26.085,0,0,1-7.429,19.259,33.793,33.793,0,0,1-7.609,5.754,39.688,39.688,0,0,1-4.535,2.063c-7.862,3.34-19.89,3.5-28.038-.15a29.909,29.909,0,0,1-14.278-12.442c-3.3-5.551-1.428-11.037-3.584-13.082-1.716-1.629-3.243,2.613-3.543,4.027a6.822,6.822,0,0,1-.24,1.458" transform="translate(-128.264 -203.959)" fill="#050708" fill-rule="evenodd"/>
              <path id="Trazado_4" data-name="Trazado 4" d="M242.561,287.031c3.165,0,4.311.128,7.566-.989,6.3-2.153,8.751-5.221,11.9-10.269,1.642-2.639,3.5-8.922,4.741-12.125.824-.756,2.673-.2,2.527.971.031.646-2.323,16.868-2.476,18.044,3.929,0,7.615-4.419,9.4-6.515.34-.406.394-.6.8-1.086.321-.374.607-.689.938-1.106l1.821-2.268c.811-.894,3.582-3.692,4.744-3.545l.6.153c-.075.863-1.747,6.622-2.1,8.054l-2.114,8.283c2.893.734,5.028-1.238,6.87-2.425a17.53,17.53,0,0,0,2.779-2.251c-.764-4.019-1.179-4.28.979-8.3,1.424-2.645,4.161-8.471,3.406-11.3-.259-.978-.857-1.175-1.936-1.21-3.505-.112-8.713,4.914-11.507,6.7a17.438,17.438,0,0,1-1.83,1.164,7.5,7.5,0,0,1-2.172.876c-.108-1.183,1.619-4.4,2.125-5.481a6.4,6.4,0,0,0,.806-2.936c-1.505-.894-2.063-1.48-3.129-1.48-3.028,0-13.1,2.77-16.1-.183a5.789,5.789,0,0,0-4.013-1.747c-4.426.009-8.093,2.407-10.524,4.656-4.106,3.8-4.145,4.191-7.212,8.176a40.392,40.392,0,0,0-3.477,5.953c-1.579,3.273-1.916,7.639.957,10.074a11.452,11.452,0,0,0,5.645,2.108m-.745-12.325a15.3,15.3,0,0,1,3.747-9.424c2.2-2.391,6.372-4.248,8.9-2.307,5.115,3.935,1.966,15.111-2.725,18.079-5.411,3.417-9.922-.4-9.922-6.349" transform="translate(-156.631 -209.886)" fill="#050708" fill-rule="evenodd"/>
              <path id="Trazado_5" data-name="Trazado 5" d="M351.733,283.038l.035,1.709c3.353-.58,4.78-1.953,6.6-4.717,4.18-6.339,6.788-18.927,7.244-26.7l-.051-1.98a11.519,11.519,0,0,0-5.9,1.045,5.228,5.228,0,0,0-2.585,2.913c-.935,2.334-1.182,6.378-1.8,9.191-.659,2.976-1.448,5.879-2.066,8.953a77.953,77.953,0,0,0-1.485,9.589" transform="translate(-187.789 -208.628)" fill="#050708" fill-rule="evenodd"/>
              <path id="Trazado_6" data-name="Trazado 6" d="M176.952,281.324a8.783,8.783,0,0,0,.144,2.311,8.307,8.307,0,0,0,4.347-3.577,28.8,28.8,0,0,0,2.876-5.446,79.848,79.848,0,0,0,3.772-12.549c.8-3.758,1.054-5.78,1.56-9.5-2.912.044-5.912,1.2-7.437,2.957-2.824,3.242-4.276,16.154-4.838,21.119-.15,1.305-.425,3.469-.425,4.681" transform="translate(-141.229 -208.954)" fill="#050708" fill-rule="evenodd"/>
              <path id="Trazado_7" data-name="Trazado 7" d="M551.224,247.75c4.908,1.132,3.17,1.441,6.011-1.955.411-.494.739-.884,1.136-1.372l1.167-1.508a45.158,45.158,0,0,0,3.417-4.311l.017-2.672c-7.448-1.415-12.473,4.2-11.748,11.817" transform="translate(-240.908 -204.465)" fill="#050708" fill-rule="evenodd"/>
              <path id="Trazado_8" data-name="Trazado 8" d="M607.922,372.585h4.8a18.11,18.11,0,0,1,2.02-1.916,6.925,6.925,0,0,0,1.594-2.172c1.177-2.575-1.357-3.2-3.583-3.382-2.918-.241-3.306-.159-4.231,1.22-1.092,1.618-2.109,1.786-2.006,3.744.062,1.208.928,1.6,1.4,2.5" transform="translate(-255.653 -238.906)" fill="#050708" fill-rule="evenodd"/>
              <path id="Trazado_9" data-name="Trazado 9" d="M651.176,226.652a6.274,6.274,0,1,1-6.274,6.275,6.273,6.273,0,0,1,6.274-6.275m0-1a7.277,7.277,0,1,1-7.278,7.278,7.278,7.278,0,0,1,7.278-7.278" transform="translate(-265.611 -201.785)" fill="#050708" fill-rule="evenodd"/>
              <path id="Trazado_10" data-name="Trazado 10" d="M649.857,237.965v-7.529H653.2a4.359,4.359,0,0,1,1.523.205,1.625,1.625,0,0,1,.837.717,2.138,2.138,0,0,1,.315,1.131,1.916,1.916,0,0,1-.52,1.352,2.635,2.635,0,0,1-1.6.7,2.85,2.85,0,0,1,.6.375,5.226,5.226,0,0,1,.828,1l1.308,2.048h-1.249l-1-1.565c-.291-.452-.53-.8-.712-1.04a2.336,2.336,0,0,0-.512-.5,1.4,1.4,0,0,0-.453-.2,2.713,2.713,0,0,0-.549-.039h-1.157v3.342Zm1-4.207H653a3.171,3.171,0,0,0,1.062-.139,1.09,1.09,0,0,0,.584-.452,1.224,1.224,0,0,0,.2-.676,1.108,1.108,0,0,0-.391-.877,1.811,1.811,0,0,0-1.222-.343h-2.379Z" transform="translate(-267.199 -203.06)" fill="#050708"/>
              <path id="Trazado_11" data-name="Trazado 11" d="M316.686,193.12V200.2H316.1a7.57,7.57,0,0,0-2.464-4.247,6.326,6.326,0,0,0-4.1-1.474,6.072,6.072,0,0,0-3.509,1.1,6.425,6.425,0,0,0-2.333,2.876,13.063,13.063,0,0,0-.947,5.061,17.014,17.014,0,0,0,.691,4.99,6.618,6.618,0,0,0,2.169,3.4,6.04,6.04,0,0,0,3.824,1.154,7.461,7.461,0,0,0,3.532-.845,12.143,12.143,0,0,0,3.385-2.9v1.761a11.151,11.151,0,0,1-3.577,2.6,10.871,10.871,0,0,1-4.348.809,12.482,12.482,0,0,1-5.806-1.314A9.289,9.289,0,0,1,298.7,209.4a10.494,10.494,0,0,1-1.378-5.228,11.136,11.136,0,0,1,5.652-9.605,11.171,11.171,0,0,1,5.516-1.447,12.531,12.531,0,0,1,4.551.933,6.957,6.957,0,0,0,1.763.543,1.146,1.146,0,0,0,.835-.353,1.962,1.962,0,0,0,.459-1.123Z" transform="translate(-173.295 -193.12)" fill="#050708"/>
              <path id="Trazado_12" data-name="Trazado 12" d="M369.99,208.211h-7.213l-.86,1.985a4.537,4.537,0,0,0-.421,1.646,1.361,1.361,0,0,0,.692,1.263,5.835,5.835,0,0,0,2.006.362v.556H357.4v-.556a3.055,3.055,0,0,0,1.806-.912,12.127,12.127,0,0,0,1.744-3.082l7.3-16.295h.288l7.363,16.75a10.153,10.153,0,0,0,1.735,3,2.372,2.372,0,0,0,1.44.541v.556H369.2v-.556h.41a3.065,3.065,0,0,0,1.673-.335.8.8,0,0,0,.327-.689,1.82,1.82,0,0,0-.088-.558c-.021-.091-.17-.466-.451-1.131Zm-.51-1.116-3.045-7.033L363.3,207.1Z" transform="translate(-189.299 -193.135)" fill="#050708"/>
              <path id="Trazado_13" data-name="Trazado 13" d="M433.53,193.12l.17,6.808h-.621a6.983,6.983,0,0,0-2.144-4.122,5.4,5.4,0,0,0-3.692-1.557,3.466,3.466,0,0,0-2.428.82,2.52,2.52,0,0,0-.9,1.891,2.245,2.245,0,0,0,.32,1.206,5.039,5.039,0,0,0,1.4,1.4,30.394,30.394,0,0,0,3.255,1.761,14.63,14.63,0,0,1,4.838,3.331,5.668,5.668,0,0,1,1.233,3.585,5.817,5.817,0,0,1-2,4.406,7.172,7.172,0,0,1-5.07,1.843,8,8,0,0,1-1.813-.2,13.521,13.521,0,0,1-2.157-.738,3.282,3.282,0,0,0-1.183-.3,1.527,1.527,0,0,0-.837.3,2.254,2.254,0,0,0-.7.921h-.558v-7.712h.558a8.863,8.863,0,0,0,2.555,4.961,5.946,5.946,0,0,0,4.063,1.71,3.852,3.852,0,0,0,2.695-.919,2.829,2.829,0,0,0,1-2.138,2.8,2.8,0,0,0-.384-1.4,4.368,4.368,0,0,0-1.165-1.289A17.31,17.31,0,0,0,427.2,206.1a24.256,24.256,0,0,1-4-2.334,7.178,7.178,0,0,1-1.875-2.155,5.363,5.363,0,0,1-.66-2.621,5.557,5.557,0,0,1,1.794-4.157,6.289,6.289,0,0,1,4.51-1.716,7.8,7.8,0,0,1,1.929.24,9.612,9.612,0,0,1,1.722.671,4.059,4.059,0,0,0,1.424.489.809.809,0,0,0,.623-.24,2.789,2.789,0,0,0,.417-1.16Z" transform="translate(-206.144 -193.12)" fill="#050708"/>
              <path id="Trazado_14" data-name="Trazado 14" d="M485.812,208.211h-7.205l-.861,1.985a4.509,4.509,0,0,0-.425,1.646,1.367,1.367,0,0,0,.7,1.263,5.833,5.833,0,0,0,2,.362v.556h-6.794v-.556a3.031,3.031,0,0,0,1.808-.912,12.252,12.252,0,0,0,1.75-3.082l7.3-16.295h.29l7.363,16.75a10.315,10.315,0,0,0,1.733,3,2.379,2.379,0,0,0,1.445.541v.556h-9.882v-.556h.413a3.072,3.072,0,0,0,1.67-.335.8.8,0,0,0,.325-.689,1.627,1.627,0,0,0-.09-.558,11.048,11.048,0,0,0-.454-1.131Zm-.5-1.116-3.046-7.033-3.13,7.033Z" transform="translate(-220.15 -193.135)" fill="#050708"/>
            </g>
          </g>
        </g>
      </g>
    </g>
    <g id="Grupo_6" data-name="Grupo 6" transform="translate(180.115 339.137)">
      <path id="Trazado_15" data-name="Trazado 15" d="M201.441,400.075c0-3.763,0-4.456-.048-5.249-.049-.843-.249-1.238-1.064-1.412a5.128,5.128,0,0,0-.967-.076c-.271,0-.42-.049-.42-.22s.174-.224.545-.224c1.311,0,2.871.073,3.565.073,1.015,0,2.451-.073,3.591-.073,3.094,0,4.21,1.04,4.605,1.411a4.308,4.308,0,0,1,1.238,2.947,5.827,5.827,0,0,1-6.091,5.992,3.629,3.629,0,0,1-.52-.025c-.123-.026-.3-.051-.3-.222,0-.2.173-.274.691-.274,1.387,0,3.318-1.56,3.318-4.087a4.756,4.756,0,0,0-1.46-3.711,3.678,3.678,0,0,0-2.476-.967,3.563,3.563,0,0,0-.967.1c-.122.051-.2.2-.2.474v9.9c0,2.276,0,4.234.125,5.3.073.694.222,1.238.967,1.338a10.52,10.52,0,0,0,1.263.1c.271,0,.4.073.4.2,0,.173-.2.246-.472.246-1.633,0-3.193-.073-3.838-.073-.569,0-2.129.073-3.118.073-.322,0-.5-.073-.5-.246,0-.125.1-.2.4-.2a4.074,4.074,0,0,0,.891-.1c.5-.1.621-.644.718-1.362.124-1.04.124-3,.124-5.274Z" transform="translate(-198.941 -392.35)" fill="#050708"/>
      <path id="Trazado_16" data-name="Trazado 16" d="M230.039,400c0-3.763,0-4.456-.048-5.249-.051-.843-.249-1.238-1.064-1.412a5.13,5.13,0,0,0-.967-.076c-.271,0-.42-.049-.42-.22s.174-.225.544-.225c.669,0,1.387.024,2.005.024.644.025,1.213.049,1.56.049.794,0,5.721,0,6.19-.024a9.987,9.987,0,0,0,1.064-.147,2.4,2.4,0,0,1,.4-.1c.122,0,.146.1.146.222,0,.174-.122.472-.2,1.612-.025.246-.073,1.335-.123,1.631-.024.127-.076.274-.249.274s-.222-.122-.222-.347a2.649,2.649,0,0,0-.149-.891c-.173-.447-.42-.742-1.658-.891-.423-.049-3.02-.1-3.516-.1-.125,0-.174.073-.174.247v6.262c0,.176.025.274.174.274.544,0,3.391,0,3.96-.049a1.728,1.728,0,0,0,1.189-.371c.173-.2.273-.323.4-.323.1,0,.173.049.173.2s-.1.544-.2,1.809c-.024.493-.1,1.484-.1,1.655,0,.2,0,.474-.225.474a.2.2,0,0,1-.222-.224,6.22,6.22,0,0,0-.1-.891c-.122-.5-.469-.866-1.384-.965-.471-.048-2.923-.076-3.516-.076-.125,0-.15.1-.15.246v1.958c0,.84-.024,3.121,0,3.838.049,1.706.445,2.078,2.972,2.078a6.325,6.325,0,0,0,2.326-.295c.645-.3.941-.818,1.114-1.834.049-.271.1-.371.274-.371.2,0,.2.2.2.447a19.282,19.282,0,0,1-.322,2.747c-.173.644-.4.644-1.338.644-1.855,0-3.218-.051-4.282-.076-1.064-.049-1.831-.073-2.574-.073-.274,0-.818,0-1.414.024-.569,0-1.211.049-1.706.049-.323,0-.5-.073-.5-.247,0-.125.1-.2.4-.2a4.076,4.076,0,0,0,.891-.1c.5-.1.62-.644.718-1.362.124-1.04.124-3,.124-5.274Z" transform="translate(-206.559 -392.278)" fill="#050708"/>
      <path id="Trazado_17" data-name="Trazado 17" d="M257.862,400.075c0-3.763,0-4.456-.049-5.249-.051-.843-.249-1.238-1.064-1.412a5.117,5.117,0,0,0-.967-.076c-.271,0-.42-.049-.42-.22s.173-.224.544-.224c1.311,0,2.871.073,3.392.073.842,0,2.725-.073,3.491-.073a7.922,7.922,0,0,1,4.556,1.064,4.293,4.293,0,0,1,1.682,3.394c0,1.831-.767,3.516-3.267,5.545,2.2,2.771,3.911,4.976,5.372,6.512a4.946,4.946,0,0,0,2.773,1.684,3.942,3.942,0,0,0,.693.073c.2,0,.3.073.3.2,0,.2-.173.246-.471.246h-2.351a5.034,5.034,0,0,1-2.649-.469c-1.065-.572-2.007-1.734-3.394-3.64-.989-1.36-2.129-3.045-2.449-3.416a.519.519,0,0,0-.447-.176l-2.153-.048c-.125,0-.2.048-.2.2v.346c0,2.3,0,4.258.123,5.3.076.718.224,1.263.967,1.362a11.444,11.444,0,0,0,1.213.1c.2,0,.295.073.295.2,0,.173-.173.246-.493.246-1.438,0-3.269-.073-3.64-.073-.471,0-2.031.073-3.02.073-.322,0-.5-.073-.5-.246,0-.125.1-.2.4-.2a4.075,4.075,0,0,0,.891-.1c.5-.1.62-.644.717-1.362.125-1.04.125-3,.125-5.274Zm2.922,1.956c0,.273.049.371.222.444a6.436,6.436,0,0,0,1.883.249,2.475,2.475,0,0,0,1.758-.42,4.369,4.369,0,0,0,1.461-3.716c0-3.516-2.327-4.532-3.79-4.532a5.31,5.31,0,0,0-1.311.1c-.173.049-.222.147-.222.344Z" transform="translate(-213.97 -392.35)" fill="#050708"/>
      <path id="Trazado_18" data-name="Trazado 18" d="M288.206,411.188c-.4-.171-.469-.3-.469-.84,0-1.362.1-2.846.122-3.243.027-.37.1-.644.3-.644.222,0,.247.222.247.42a5.216,5.216,0,0,0,.224,1.265,3.411,3.411,0,0,0,3.54,2.5,3.01,3.01,0,0,0,3.318-2.822c0-1.216-.371-2.354-2.427-3.963l-1.14-.891c-2.723-2.129-3.662-3.863-3.662-5.87,0-2.723,2.278-4.678,5.718-4.678a12.11,12.11,0,0,1,3.294.42c.222.051.346.125.346.3,0,.322-.1,1.04-.1,2.971,0,.544-.073.745-.271.745-.173,0-.249-.151-.249-.447a2.983,2.983,0,0,0-.642-1.633,3.14,3.14,0,0,0-2.7-1.216c-1.831,0-2.945,1.065-2.945,2.552,0,1.14.569,2.005,2.623,3.568l.693.517c3,2.254,4.06,3.962,4.06,6.314a4.987,4.987,0,0,1-2.326,4.307,7.145,7.145,0,0,1-3.936,1.016A8.53,8.53,0,0,1,288.206,411.188Z" transform="translate(-222.593 -392.224)" fill="#050708"/>
      <path id="Trazado_19" data-name="Trazado 19" d="M312.691,402.129c0-4.236,2.8-9.707,10.225-9.707,6.165,0,10,3.589,10,9.258a9.789,9.789,0,0,1-10.253,10.152C315.562,411.832,312.691,406.509,312.691,402.129Zm16.761.469c0-5.547-3.194-8.988-7.254-8.988-2.846,0-6.091,1.585-6.091,7.75,0,5.149,2.846,9.236,7.6,9.236C325.441,410.6,329.452,409.752,329.452,402.6Z" transform="translate(-229.24 -392.224)" fill="#050708"/>
      <path id="Trazado_20" data-name="Trazado 20" d="M354.137,408.094c.049,1.929.371,2.574.867,2.747a3.917,3.917,0,0,0,1.287.173c.273,0,.422.049.422.2,0,.2-.224.247-.571.247-1.609,0-2.6-.073-3.07-.073-.222,0-1.387.073-2.673.073-.322,0-.544-.024-.544-.247,0-.149.147-.2.4-.2a4.356,4.356,0,0,0,1.114-.124c.644-.2.742-.916.769-3.069l.222-14.659c0-.494.073-.84.322-.84.271,0,.493.322.916.767.3.322,4.061,4.358,7.674,7.947,1.685,1.684,5.028,5.249,5.447,5.647h.125l-.246-11.119c-.025-1.508-.249-1.98-.842-2.227a3.981,3.981,0,0,0-1.314-.151c-.3,0-.4-.073-.4-.22,0-.2.274-.224.645-.224,1.286,0,2.475.073,3,.073.271,0,1.213-.073,2.427-.073.32,0,.569.024.569.224q0,.22-.447.22a2.654,2.654,0,0,0-.742.076c-.693.2-.891.717-.916,2.1L368.3,410.99c0,.544-.1.767-.32.767-.274,0-.572-.274-.842-.544-1.56-1.487-4.73-4.73-7.306-7.278-2.7-2.676-5.447-5.769-5.891-6.241h-.076Z" transform="translate(-239.139 -392.197)" fill="#050708"/>
      <path id="Trazado_21" data-name="Trazado 21" d="M391.189,404.953c-.125,0-.173.048-.224.2l-1.336,3.54a4.764,4.764,0,0,0-.371,1.511c0,.445.222.767.989.767h.371c.3,0,.373.049.373.2,0,.2-.149.247-.423.247-.791,0-1.855-.073-2.624-.073-.271,0-1.634.073-2.92.073-.323,0-.472-.049-.472-.247,0-.149.1-.2.3-.2a7.638,7.638,0,0,0,.767-.048c1.14-.149,1.609-.992,2.1-2.229l6.214-15.55c.3-.718.447-.989.693-.989.222,0,.371.222.62.794.594,1.359,4.556,11.46,6.141,15.225.941,2.227,1.658,2.574,2.178,2.7a5.492,5.492,0,0,0,1.04.1c.2,0,.322.025.322.2,0,.2-.224.247-1.14.247-.891,0-2.7,0-4.678-.049-.447-.024-.745-.024-.745-.2,0-.149.1-.2.347-.222a.407.407,0,0,0,.225-.572l-1.982-5.249a.236.236,0,0,0-.246-.171Zm5.049-1.241c.125,0,.149-.073.125-.146l-2.23-6.116c-.024-.1-.048-.222-.122-.222s-.125.122-.149.222l-2.278,6.091c-.024.1,0,.171.1.171Z" transform="translate(-248.382 -392.152)" fill="#050708"/>
      <path id="Trazado_22" data-name="Trazado 22" d="M424.605,404.433c0,3.169,0,4.879.52,5.323.42.37,1.065.544,3,.544,1.312,0,2.279-.024,2.9-.693a3.113,3.113,0,0,0,.644-1.487c.024-.22.073-.371.272-.371.173,0,.2.125.2.423a19.546,19.546,0,0,1-.371,2.846c-.149.544-.271.669-1.56.669-1.783,0-3.07-.051-4.182-.076-1.116-.049-2.007-.073-3.02-.073-.274,0-.818,0-1.414.024-.569,0-1.211.049-1.706.049-.323,0-.5-.073-.5-.246,0-.125.1-.2.4-.2a4.074,4.074,0,0,0,.891-.1c.5-.1.62-.644.717-1.362.125-1.04.125-3,.125-5.274v-4.358c0-3.763,0-4.456-.048-5.249-.051-.843-.249-1.238-1.064-1.412a3.7,3.7,0,0,0-.818-.076c-.271,0-.42-.049-.42-.22s.173-.224.544-.224c1.163,0,2.723.073,3.392.073.594,0,2.4-.073,3.367-.073.347,0,.52.049.52.224s-.149.22-.444.22a6.663,6.663,0,0,0-.967.076c-.669.125-.867.544-.916,1.412-.049.793-.049,1.486-.049,5.249Z" transform="translate(-257.599 -392.35)" fill="#050708"/>
      <path id="Trazado_23" data-name="Trazado 23" d="M448.483,400.075c0-3.763,0-4.456-.049-5.249-.051-.843-.3-1.263-.842-1.387a3.564,3.564,0,0,0-.891-.1c-.246,0-.4-.049-.4-.247,0-.149.2-.2.594-.2.94,0,2.5.073,3.218.073.62,0,2.081-.073,3.023-.073.32,0,.518.049.518.2,0,.2-.147.247-.4.247a4.244,4.244,0,0,0-.742.076c-.669.125-.867.544-.916,1.412-.051.793-.051,1.486-.051,5.249v4.358c0,2.4,0,4.356.1,5.421.073.669.247,1.116.992,1.216a10.5,10.5,0,0,0,1.262.1c.271,0,.4.073.4.2,0,.173-.2.246-.471.246-1.633,0-3.194-.073-3.86-.073-.571,0-2.131.073-3.12.073-.322,0-.5-.073-.5-.246,0-.125.1-.2.4-.2a4.075,4.075,0,0,0,.891-.1c.5-.1.644-.522.717-1.241.125-1.04.125-2.993.125-5.4Z" transform="translate(-264.83 -392.35)" fill="#050708"/>
      <path id="Trazado_24" data-name="Trazado 24" d="M477.609,410.113c2.524,0,3.491-.618,3.887-1.362a4.386,4.386,0,0,0,.445-1.186c.051-.249.1-.4.249-.4.2,0,.246.171.246.767a15.707,15.707,0,0,1-.5,3.02c-.122.447-.3.643-.742.643-4.133,0-8.294-.123-13.294-.123-.274,0-.423-.073-.423-.249s.076-.3.371-.742c3.491-5.445,7.157-11.041,10.475-16.266h-4.854a8.526,8.526,0,0,0-3.565.52,2.8,2.8,0,0,0-1.337,1.932c-.049.346-.147.445-.3.445-.173,0-.2-.123-.2-.42,0-.569.371-2.822.494-3.565.051-.346.149-.471.3-.471a6.92,6.92,0,0,0,.991.173c2.351.1,3.541.073,4.556.073h7.552c.246,0,.42.076.42.2a1.078,1.078,0,0,1-.2.469c-3.419,5.547-7.181,11.217-10.672,16.539Z" transform="translate(-270.471 -392.287)" fill="#050708"/>
      <path id="Trazado_25" data-name="Trazado 25" d="M499.913,404.953c-.125,0-.174.048-.224.2l-1.336,3.54a4.763,4.763,0,0,0-.371,1.511c0,.445.222.767.989.767h.371c.3,0,.373.049.373.2,0,.2-.149.247-.423.247-.791,0-1.855-.073-2.624-.073-.271,0-1.634.073-2.921.073-.322,0-.471-.049-.471-.247,0-.149.1-.2.3-.2a7.638,7.638,0,0,0,.767-.048c1.14-.149,1.609-.992,2.1-2.229l6.214-15.55c.3-.718.447-.989.693-.989.225,0,.371.222.62.794.594,1.359,4.556,11.46,6.141,15.225.941,2.227,1.658,2.574,2.178,2.7a5.492,5.492,0,0,0,1.04.1c.2,0,.322.025.322.2,0,.2-.224.247-1.14.247-.891,0-2.7,0-4.678-.049-.447-.024-.745-.024-.745-.2,0-.149.1-.2.347-.222a.407.407,0,0,0,.224-.572l-1.982-5.249a.236.236,0,0,0-.247-.171Zm5.049-1.241c.125,0,.149-.073.125-.146l-2.229-6.116c-.024-.1-.048-.222-.122-.222s-.125.122-.149.222l-2.278,6.091c-.024.1,0,.171.1.171Z" transform="translate(-277.342 -392.152)" fill="#050708"/>
      <path id="Trazado_26" data-name="Trazado 26" d="M530.179,400.075c0-3.763,0-4.456-.049-5.249-.048-.843-.249-1.238-1.065-1.412a5.113,5.113,0,0,0-.966-.076c-.271,0-.42-.049-.42-.22s.173-.224.544-.224c1.311,0,2.871.073,3.565.073.77,0,2.327-.073,3.814-.073,3.093,0,7.229,0,9.927,2.822a8.849,8.849,0,0,1,2.4,6.289,9.838,9.838,0,0,1-2.7,6.907c-1.14,1.165-3.717,2.923-8.3,2.923-.891,0-1.9-.073-2.846-.149s-1.807-.149-2.428-.149c-.271,0-.815,0-1.411.024-.569,0-1.211.049-1.706.049-.323,0-.5-.073-.5-.246,0-.125.1-.2.4-.2a4.076,4.076,0,0,0,.891-.1c.5-.1.62-.644.717-1.362.125-1.04.125-3,.125-5.274Zm3.1,2.723c0,2.627.024,4.532.049,5a5.413,5.413,0,0,0,.271,1.883c.322.469,1.289.989,3.245.989a7.958,7.958,0,0,0,5.694-1.783c1.585-1.362,2.08-3.616,2.08-6.165a8.411,8.411,0,0,0-2.376-6.19,9.81,9.81,0,0,0-7.032-2.478,6.547,6.547,0,0,0-1.611.176.446.446,0,0,0-.3.493c-.024.845-.024,3-.024,4.951Z" transform="translate(-286.506 -392.35)" fill="#050708"/>
      <path id="Trazado_27" data-name="Trazado 27" d="M565.486,402.129c0-4.236,2.8-9.707,10.225-9.707,6.165,0,10,3.589,10,9.258a9.789,9.789,0,0,1-10.253,10.152C568.357,411.832,565.486,406.509,565.486,402.129Zm16.761.469c0-5.547-3.194-8.988-7.254-8.988-2.847,0-6.091,1.585-6.091,7.75,0,5.149,2.846,9.236,7.6,9.236C578.236,410.6,582.247,409.752,582.247,402.6Z" transform="translate(-296.576 -392.224)" fill="#050708"/>
    </g>
  </g>
</svg>
